<svg xmlns="http://www.w3.org/2000/svg" width="512" height="512" viewBox="0 0 512 512" version="1.1"><path d="" stroke="none" fill="#5884a4" fill-rule="evenodd"/><path d="M 236.500 86.655 C 234.300 86.831, 227.550 87.469, 221.500 88.073 C 215.450 88.677, 204.650 90.244, 197.500 91.555 C 190.350 92.865, 179.550 95.326, 173.500 97.024 C 167.450 98.721, 158 101.695, 152.500 103.633 C 147 105.571, 136.490 110.045, 129.143 113.576 C 121.797 117.106, 112.044 122.255, 107.469 125.019 C 102.894 127.782, 95.854 132.586, 91.825 135.693 C 87.796 138.801, 81.870 143.629, 78.655 146.422 C 75.440 149.215, 69.210 155.775, 64.810 161 C 60.409 166.225, 54.422 174.550, 51.505 179.500 C 48.587 184.450, 45.011 191.425, 43.558 195 C 42.105 198.575, 39.989 204.875, 38.857 209 L 36.797 216.500 36.267 229.785 L 35.737 243.069 36.973 250.732 C 37.653 254.947, 39.339 261.794, 40.719 265.947 C 42.100 270.101, 45.419 277.775, 48.095 283 C 50.771 288.225, 55.843 296.325, 59.365 301 C 62.888 305.675, 70.019 313.606, 75.212 318.625 C 80.404 323.644, 88.423 330.547, 93.032 333.964 C 97.641 337.381, 105.620 342.654, 110.763 345.680 C 115.906 348.707, 124.701 353.331, 130.307 355.955 C 135.913 358.579, 145.495 362.563, 151.600 364.809 C 157.705 367.055, 168.055 370.330, 174.600 372.086 C 181.145 373.843, 193.394 376.466, 201.821 377.915 L 217.142 380.549 217.038 403.775 L 216.933 427 255.503 427 L 294.072 427 293.786 403.955 L 293.500 380.911 295.500 380.545 C 296.600 380.344, 303.362 379.227, 310.526 378.064 C 317.691 376.901, 327.816 374.866, 333.026 373.542 C 338.237 372.218, 343.206 370.863, 344.069 370.530 L 345.638 369.925 360.725 398.212 L 375.812 426.500 418.886 426.761 L 461.961 427.021 459.150 422.261 C 457.604 419.642, 446.090 400.220, 433.563 379.100 L 410.786 340.699 412.143 339.932 C 412.889 339.510, 417.325 336.319, 422 332.839 C 426.675 329.360, 434.591 322.460, 439.591 317.507 C 444.591 312.553, 451.491 304.675, 454.924 300 C 458.358 295.325, 463.603 286.550, 466.580 280.500 L 471.992 269.500 474.496 259.622 L 477 249.744 476.985 234.122 L 476.969 218.500 475.016 210.749 C 473.942 206.486, 471.851 199.968, 470.369 196.265 C 468.888 192.562, 466.329 187.050, 464.684 184.016 C 463.039 180.982, 459.472 175.261, 456.757 171.302 C 454.043 167.343, 448.236 160.271, 443.853 155.586 C 439.471 150.902, 432.423 144.274, 428.192 140.857 C 423.962 137.440, 415.797 131.573, 410.048 127.819 C 404.299 124.065, 395.749 119.011, 391.048 116.587 C 386.347 114.164, 378.450 110.504, 373.500 108.453 C 368.550 106.402, 360.675 103.421, 356 101.827 C 351.325 100.234, 342.129 97.568, 335.565 95.903 C 329 94.239, 317.300 91.806, 309.565 90.498 C 301.829 89.190, 289.200 87.644, 281.500 87.064 C 273.800 86.483, 261.425 86.082, 254 86.172 C 246.575 86.262, 238.700 86.480, 236.500 86.655 M 256 146.995 C 248.575 147.988, 237.153 150.006, 230.617 151.480 C 224.081 152.954, 214.181 155.728, 208.617 157.643 C 203.053 159.559, 193.079 163.729, 186.453 166.909 C 179.827 170.089, 171.260 174.763, 167.415 177.295 C 163.571 179.828, 157.304 184.522, 153.489 187.726 C 149.674 190.931, 143.990 196.603, 140.859 200.331 C 137.728 204.059, 133.370 210.572, 131.174 214.805 C 128.978 219.037, 126.372 225.200, 125.382 228.500 L 123.582 234.500 123.570 245.500 L 123.558 256.500 125.850 263.429 C 127.111 267.240, 129.074 272.190, 130.212 274.429 C 131.350 276.668, 134.104 281.200, 136.332 284.500 C 138.559 287.800, 143.927 293.979, 148.260 298.232 C 152.592 302.485, 160.245 308.712, 165.265 312.070 C 170.286 315.428, 177.901 319.939, 182.189 322.095 C 186.476 324.251, 193.274 327.321, 197.295 328.919 C 201.316 330.516, 207.469 332.763, 210.968 333.911 C 214.467 335.060, 217.368 336, 217.415 336 C 217.462 336, 217.500 300.563, 217.500 257.250 L 217.500 178.500 299 178.503 L 380.500 178.507 389.463 181.311 C 394.392 182.853, 401.592 185.776, 405.463 187.807 L 412.500 191.499 419.605 198.239 L 426.710 204.979 429.900 210.964 C 431.655 214.256, 434.022 219.548, 435.160 222.725 L 437.230 228.500 437.737 242.050 L 438.244 255.600 436.120 264.050 C 434.952 268.697, 432.597 275.357, 430.887 278.850 L 427.776 285.199 421.272 292.095 C 417.694 295.887, 412.150 300.737, 408.952 302.873 C 405.754 305.009, 399.844 308.126, 395.818 309.800 C 391.793 311.474, 385.350 313.501, 381.500 314.304 C 377.650 315.107, 375.175 316.007, 376 316.305 C 376.825 316.602, 380.097 317.777, 383.271 318.916 C 386.445 320.056, 391.232 322.097, 393.907 323.453 L 398.772 325.918 407.451 320.744 C 412.224 317.899, 419.670 312.282, 423.997 308.262 C 428.324 304.242, 433.426 298.825, 435.335 296.224 C 437.244 293.624, 440.399 288.323, 442.345 284.444 C 444.292 280.566, 446.839 274.042, 448.005 269.947 L 450.126 262.500 450.688 250.500 L 451.251 238.500 450.083 231 C 449.440 226.875, 447.636 219.782, 446.072 215.239 C 444.509 210.695, 441.716 204.415, 439.865 201.284 C 438.014 198.152, 432.989 191.897, 428.697 187.383 C 424.405 182.869, 417.655 176.944, 413.697 174.215 C 409.739 171.486, 403.350 167.678, 399.500 165.752 C 395.650 163.826, 388.002 160.570, 382.504 158.517 C 377.007 156.463, 366.657 153.460, 359.504 151.843 C 352.352 150.225, 338.851 148.024, 329.501 146.951 L 312.503 145 291.001 145.095 L 269.500 145.191 256 146.995 M 294 253.500 L 294 274 318.351 274 L 342.702 274 346.101 272.862 C 347.970 272.236, 351.011 270.601, 352.859 269.228 C 354.706 267.855, 357.059 264.880, 358.087 262.616 L 359.956 258.500 359.956 253 L 359.956 247.500 358.119 243.500 C 357.109 241.300, 355.415 238.730, 354.355 237.788 C 353.294 236.847, 350.770 235.384, 348.746 234.538 L 345.064 233 319.532 233 L 294 233 294 253.500 M 293.500 338.122 L 293.500 346.245 308.500 345.527 C 316.750 345.132, 325.245 344.514, 327.378 344.154 L 331.257 343.500 326.498 338.208 C 323.881 335.298, 320.471 332.261, 318.920 331.458 L 316.099 330 304.800 330 L 293.500 330 293.500 338.122" stroke="none" fill="#5484a4" fill-rule="evenodd"/></svg>